<?xml version="1.0" standalone="no"?><svg xmlns:xlink="http://www.w3.org/1999/xlink" xmlns="http://www.w3.org/2000/svg" viewBox="0 0 1000 599.9843973574451" preserveAspectRatio="xMaxYMax slice"><g transform="scale(1.9027612871799555)"><rect x="0" y="0" width="525.555" height="315.33299999999997" fill="#ffffff"/><path d="M 0 0 A 52.56 52.56 0 0 1  52.56 52.56 L 0 0 A 52.56 52.56 0 0 0 52.56 52.56" fill="#fbfbff"/><rect x="52.555499999999995" y="0" width="52.555499999999995" height="52.555499999999995" fill="#ffffff"/><path d="M 52.56 26.28 A 26.28 26.28 0 0 1  78.84 52.56 L 52.56 26.28 A 26.28 26.28 0 0 0 78.84 52.56" fill="#ebe7ff"/><path d="M 262.78 0 A 52.56 52.56 0 0 1  315.34 52.56 L 262.78 0 A 52.56 52.56 0 0 0 315.34 52.56" fill="#d5ccff"/><rect x="315.33299999999997" y="0" width="52.555499999999995" height="52.555499999999995" fill="#ffffff"/><path d="M 341.61 26.28 A 26.28 26.28 0 0 1  367.89 0 L 341.61 26.28 A 26.28 26.28 0 0 0 367.89 0" fill="#e7e2ff"/><path d="M 315.33 52.56 A 26.28 26.28 0 0 1  341.61 26.28 L 315.33 52.56 A 26.28 26.28 0 0 0 341.61 26.28" fill="#e5e0ff"/><path d="M 341.61 26.28 A 26.28 26.28 0 0 1  367.89 52.56 L 341.61 26.28 A 26.28 26.28 0 0 0 367.89 52.56" fill="#e5dfff"/><rect x="420.44399999999996" y="0" width="52.555499999999995" height="52.555499999999995" fill="#ffffff"/><path d="M 473 52.56 A 52.56 52.56 0 0 1  525.56 0 L 473 52.56 A 52.56 52.56 0 0 0 525.56 0" fill="#e8e3ff"/><path d="M 0 105.12 A 52.56 52.56 0 0 1  52.56 52.56 L 0 105.12 A 52.56 52.56 0 0 0 52.56 52.56" fill="#dfd8ff"/><rect x="210.22199999999998" y="52.555499999999995" width="52.555499999999995" height="52.555499999999995" fill="#ffffff"/><path d="M 236.5 52.56 A 26.28 26.28 0 0 1  262.78 78.84 L 236.5 52.56 A 26.28 26.28 0 0 0 262.78 78.84" fill="#fdfdff"/><rect x="315.33299999999997" y="52.555499999999995" width="52.555499999999995" height="52.555499999999995" fill="#ffffff"/><rect x="105.11099999999999" y="105.11099999999999" width="52.555499999999995" height="52.555499999999995" fill="#ffffff"/><path d="M 105.11 105.11 A 26.28 26.28 0 0 1  131.39 131.39 L 105.11 105.11 A 26.28 26.28 0 0 0 131.39 131.39" fill="#f5f3ff"/><rect x="262.7775" y="105.11099999999999" width="52.555499999999995" height="52.555499999999995" fill="#ffffff"/><path d="M 262.78 131.39 A 26.28 26.28 0 0 1  289.05999999999995 157.67 L 262.78 131.39 A 26.28 26.28 0 0 0 289.05999999999995 157.67" fill="#f5f3ff"/><rect x="420.44399999999996" y="105.11099999999999" width="52.555499999999995" height="52.555499999999995" fill="#ffffff"/><path d="M 420.44 105.11 A 26.28 26.28 0 0 1  446.72 131.39 L 420.44 105.11 A 26.28 26.28 0 0 0 446.72 131.39" fill="#fefeff"/><path d="M 420.44 157.67 A 26.28 26.28 0 0 1  446.72 131.39 L 420.44 157.67 A 26.28 26.28 0 0 0 446.72 131.39" fill="#eae5ff"/><rect x="157.66649999999998" y="157.66649999999998" width="52.555499999999995" height="52.555499999999995" fill="#ffffff"/><path d="M 157.67 157.67 A 26.28 26.28 0 0 1  183.95 183.95 L 157.67 157.67 A 26.28 26.28 0 0 0 183.95 183.95" fill="#e1daff"/><path d="M 157.67 210.22 A 26.28 26.28 0 0 1  183.95 183.94 L 157.67 210.22 A 26.28 26.28 0 0 0 183.95 183.94" fill="#d5ccff"/><path d="M 262.78 210.23 A 52.56 52.56 0 0 1  315.34 157.67 L 262.78 210.23 A 52.56 52.56 0 0 0 315.34 157.67" fill="#dcd4ff"/><path d="M 157.67 262.78 A 52.56 52.56 0 0 1  210.23 210.22 L 157.67 262.78 A 52.56 52.56 0 0 0 210.23 210.22" fill="#e8e3ff"/><rect x="315.33299999999997" y="210.22199999999998" width="52.555499999999995" height="52.555499999999995" fill="#ffffff"/><path d="M 315.33 236.5 A 26.28 26.28 0 0 1  341.61 210.22 L 315.33 236.5 A 26.28 26.28 0 0 0 341.61 210.22" fill="#e7e2ff"/><path d="M 341.61 210.22 A 26.28 26.28 0 0 1  367.89 236.5 L 341.61 210.22 A 26.28 26.28 0 0 0 367.89 236.5" fill="#f6f4ff"/><path d="M 420.44 210.22 A 52.56 52.56 0 0 1  473 262.78 L 420.44 210.22 A 52.56 52.56 0 0 0 473 262.78" fill="#d5ccff"/><rect x="52.555499999999995" y="262.7775" width="52.555499999999995" height="52.555499999999995" fill="#ffffff"/><path d="M 52.56 289.05999999999995 A 26.28 26.28 0 0 1  78.84 262.78 L 52.56 289.05999999999995 A 26.28 26.28 0 0 0 78.84 262.78" fill="#fbfaff"/><path d="M 157.67 262.78 A 52.56 52.56 0 0 1  210.23 315.34 L 157.67 262.78 A 52.56 52.56 0 0 0 210.23 315.34" fill="#eae6ff"/><rect x="262.7775" y="262.7775" width="52.555499999999995" height="52.555499999999995" fill="#ffffff"/><path d="M 262.78 315.34000000000003 A 26.28 26.28 0 0 1  289.05999999999995 289.06 L 262.78 315.34000000000003 A 26.28 26.28 0 0 0 289.05999999999995 289.06" fill="#eae6ff"/><path d="M 289.06 315.34000000000003 A 26.28 26.28 0 0 1  315.34000000000003 289.06 L 289.06 315.34000000000003 A 26.28 26.28 0 0 0 315.34000000000003 289.06" fill="#dcd5ff"/></g></svg>