<?xml version="1.0" standalone="no"?><svg xmlns:xlink="http://www.w3.org/1999/xlink" xmlns="http://www.w3.org/2000/svg" viewBox="0 0 1000 599.9843973574451" preserveAspectRatio="xMaxYMax slice"><g transform="scale(1.9027612871799555)"><rect x="0" y="0" width="525.555" height="315.33299999999997" fill="#ffffff"/><path d="M 0 52.56 A 52.56 52.56 0 0 1  52.56 0 L 0 52.56 A 52.56 52.56 0 0 0 52.56 0" fill="#b782d3"/><rect x="52.555499999999995" y="0" width="52.555499999999995" height="52.555499999999995" fill="#ffffff"/><path d="M 52.56 0 A 26.28 26.28 0 0 1  78.84 26.28 L 52.56 0 A 26.28 26.28 0 0 0 78.84 26.28" fill="#db8df1"/><rect x="105.11099999999999" y="0" width="52.555499999999995" height="52.555499999999995" fill="#ffffff"/><path d="M 105.11 52.56 A 26.28 26.28 0 0 1  131.39 26.28 L 105.11 52.56 A 26.28 26.28 0 0 0 131.39 26.28" fill="#ecdef3"/><path d="M 367.89 52.56 A 52.56 52.56 0 0 1  420.45 0 L 367.89 52.56 A 52.56 52.56 0 0 0 420.45 0" fill="#f9edfd"/><path d="M 420.44 0 A 52.56 52.56 0 0 1  473 52.56 L 420.44 0 A 52.56 52.56 0 0 0 473 52.56" fill="#b47dd1"/><path d="M 473 52.56 A 52.56 52.56 0 0 1  525.56 0 L 473 52.56 A 52.56 52.56 0 0 0 525.56 0" fill="#d4b4e5"/><rect x="0" y="52.555499999999995" width="52.555499999999995" height="52.555499999999995" fill="#ffffff"/><path d="M 0 105.11 A 26.28 26.28 0 0 1  26.28 78.83 L 0 105.11 A 26.28 26.28 0 0 0 26.28 78.83" fill="#faf0fd"/><path d="M 26.28 78.83 A 26.28 26.28 0 0 1  52.56 105.11 L 26.28 78.83 A 26.28 26.28 0 0 0 52.56 105.11" fill="#f3d9fa"/><rect x="315.33299999999997" y="52.555499999999995" width="52.555499999999995" height="52.555499999999995" fill="#ffffff"/><rect x="420.44399999999996" y="52.555499999999995" width="52.555499999999995" height="52.555499999999995" fill="#ffffff"/><path d="M 420.44 52.56 A 26.28 26.28 0 0 1  446.72 78.84 L 420.44 52.56 A 26.28 26.28 0 0 0 446.72 78.84" fill="#ab6ecc"/><path d="M 420.44 105.11 A 26.28 26.28 0 0 1  446.72 78.83 L 420.44 105.11 A 26.28 26.28 0 0 0 446.72 78.83" fill="#b71be2"/><path d="M 446.72 105.11 A 26.28 26.28 0 0 1  473 78.83 L 446.72 105.11 A 26.28 26.28 0 0 0 473 78.83" fill="#d271ed"/><rect x="105.11099999999999" y="105.11099999999999" width="52.555499999999995" height="52.555499999999995" fill="#ffffff"/><path d="M 105.11 131.39 A 26.28 26.28 0 0 1  131.39 157.67 L 105.11 131.39 A 26.28 26.28 0 0 0 131.39 157.67" fill="#db8df1"/><rect x="210.22199999999998" y="105.11099999999999" width="52.555499999999995" height="52.555499999999995" fill="#ffffff"/><path d="M 210.22 131.39 A 26.28 26.28 0 0 1  236.5 105.11 L 210.22 131.39 A 26.28 26.28 0 0 0 236.5 105.11" fill="#c295da"/><path d="M 210.22 131.39 A 26.28 26.28 0 0 1  236.5 157.67 L 210.22 131.39 A 26.28 26.28 0 0 0 236.5 157.67" fill="#f7e5fc"/><path d="M 262.78 157.67000000000002 A 52.56 52.56 0 0 1  315.34 105.11 L 262.78 157.67000000000002 A 52.56 52.56 0 0 0 315.34 105.11" fill="#ac6fcd"/><path d="M 420.44 157.67000000000002 A 52.56 52.56 0 0 1  473 105.11 L 420.44 157.67000000000002 A 52.56 52.56 0 0 0 473 105.11" fill="#de95f2"/><path d="M 105.11 157.67 A 52.56 52.56 0 0 1  157.67000000000002 210.23 L 105.11 157.67 A 52.56 52.56 0 0 0 157.67000000000002 210.23" fill="#d885f0"/><rect x="157.66649999999998" y="157.66649999999998" width="52.555499999999995" height="52.555499999999995" fill="#ffffff"/><path d="M 183.94 183.94 A 26.28 26.28 0 0 1  210.22 210.22 L 183.94 183.94 A 26.28 26.28 0 0 0 210.22 210.22" fill="#cc5deb"/><rect x="262.7775" y="157.66649999999998" width="52.555499999999995" height="52.555499999999995" fill="#ffffff"/><path d="M 262.78 183.94 A 26.28 26.28 0 0 1  289.05999999999995 210.22 L 262.78 183.94 A 26.28 26.28 0 0 0 289.05999999999995 210.22" fill="#cba5e0"/><rect x="367.88849999999996" y="157.66649999999998" width="52.555499999999995" height="52.555499999999995" fill="#ffffff"/><path d="M 367.89 157.67 A 26.28 26.28 0 0 1  394.16999999999996 183.95 L 367.89 157.67 A 26.28 26.28 0 0 0 394.16999999999996 183.95" fill="#f8e9fc"/><path d="M 394.17 157.67 A 26.28 26.28 0 0 1  420.45000000000005 183.95 L 394.17 157.67 A 26.28 26.28 0 0 0 420.45000000000005 183.95" fill="#ce63eb"/><rect x="472.99949999999995" y="157.66649999999998" width="52.555499999999995" height="52.555499999999995" fill="#ffffff"/><path d="M 0 262.78 A 52.56 52.56 0 0 1  52.56 210.22 L 0 262.78 A 52.56 52.56 0 0 0 52.56 210.22" fill="#eee2f5"/><path d="M 105.11 262.78 A 52.56 52.56 0 0 1  157.67000000000002 210.22 L 105.11 262.78 A 52.56 52.56 0 0 0 157.67000000000002 210.22" fill="#b47cd1"/><rect x="105.11099999999999" y="262.7775" width="52.555499999999995" height="52.555499999999995" fill="#ffffff"/><path d="M 131.39 315.34000000000003 A 26.28 26.28 0 0 1  157.67 289.06 L 131.39 315.34000000000003 A 26.28 26.28 0 0 0 157.67 289.06" fill="#ebddf3"/><path d="M 157.67 262.78 A 52.56 52.56 0 0 1  210.23 315.34 L 157.67 262.78 A 52.56 52.56 0 0 0 210.23 315.34" fill="#c036e6"/><path d="M 420.44 262.78 A 52.56 52.56 0 0 1  473 315.34 L 420.44 262.78 A 52.56 52.56 0 0 0 473 315.34" fill="#e5abf4"/></g></svg>